<?xml version="1.0" standalone="no"?>
<!DOCTYPE svg PUBLIC "-//W3C//DTD SVG 20010904//EN"
 "http://www.w3.org/TR/2001/REC-SVG-20010904/DTD/svg10.dtd">
<svg version="1.0" xmlns="http://www.w3.org/2000/svg"
 width="340.000000pt" height="340.000000pt" viewBox="0 0 340.000000 340.000000"
 preserveAspectRatio="xMidYMid meet">
<metadata>
Created by potrace 1.11, written by Peter Selinger 2001-2013
</metadata>
<g transform="translate(0.000000,340.000000) scale(0.100000,-0.100000)"
fill="#000000" stroke="none">
<path d="M1555 3323 c-165 -23 -329 -97 -426 -193 -92 -91 -114 -141 -114
-255 0 -114 22 -164 115 -255 121 -119 304 -188 525 -197 153 -6 241 5 373 49
160 53 283 148 342 264 21 42 25 63 25 139 0 105 -19 154 -92 235 -86 96 -265
182 -433 209 -62 10 -253 13 -315 4z m396 -253 c323 -70 379 -258 106 -360
-104 -39 -196 -52 -352 -53 -216 0 -384 42 -473 119 -225 193 265 393 719 294z"/>
<path d="M1477 2987 c-39 -29 -49 -128 -19 -187 47 -96 120 37 81 149 -14 39
-40 55 -62 38z"/>
<path d="M1874 2992 c-51 -34 -49 -207 4 -227 9 -3 24 3 36 15 30 29 31 167 2
199 -21 23 -25 24 -42 13z"/>
<path d="M1568 2298 c-274 -108 -475 -497 -507 -982 -13 -189 1 -382 40 -556
111 -491 400 -785 696 -706 149 40 290 178 390 381 195 399 211 982 38 1410
-84 208 -212 367 -350 435 -61 30 -81 34 -160 37 -75 3 -100 -1 -147 -19z
m282 -292 c0 -8 -15 -50 -34 -94 l-34 -80 38 -234 38 -233 -75 -92 c-41 -51
-77 -93 -79 -93 -2 0 -37 42 -78 93 l-75 93 35 209 c19 116 35 224 35 240 1
17 -15 68 -35 113 -20 46 -36 86 -36 88 0 2 68 4 150 4 122 0 150 -3 150 -14z"/>
<path d="M1065 2013 c-165 -227 -565 -1173 -632 -1497 -26 -125 -4 -131 71
-17 188 282 594 1275 613 1499 7 76 -4 80 -52 15z"/>
<path d="M2294 1997 c-22 -59 134 -545 312 -975 139 -333 273 -599 328 -651
24 -23 26 -23 33 -5 34 89 -259 909 -493 1379 -106 212 -164 293 -180 252z"/>
</g>
</svg>
