<svg xmlns="http://www.w3.org/2000/svg" width="800" height="800" viewBox="0 0 800 800">
  <defs>
    <style>
      .cls-1, .cls-2, .cls-4 {
        fill: #f6eded;
      }

      .cls-1 {
        stroke: #000;
        stroke-width: 10.14px;
      }

      .cls-3, .cls-4, .cls-5 {
        fill-rule: evenodd;
      }

      .cls-5 {
        fill: #1a1919;
      }
    </style>
  </defs>
  <circle id="Ellipse_1_copy" data-name="Ellipse 1 copy" class="cls-1" cx="400" cy="453" r="318"/>
  <ellipse cx="400.5" cy="253" rx="85.5" ry="56"/>
  <ellipse id="Ellipse_1_copy_2" data-name="Ellipse 1 copy 2" class="cls-2" cx="400.5" cy="253" rx="64.5" ry="27"/>
  <ellipse cx="400" cy="459.5" rx="79" ry="139.5"/>
  <path class="cls-3" d="M328.932,352.072c5.308,1.889-9.162,48.385-32.321,103.85s-46.235,98.9-51.543,97.006,9.162-48.385,32.321-103.85S323.624,350.182,328.932,352.072Z"/>
  <path id="Ellipse_3_copy" data-name="Ellipse 3 copy" class="cls-3" d="M473.223,358.075c5.49-1.773,27.972,42.2,50.216,98.215s35.827,102.862,30.338,104.635-27.972-42.2-50.216-98.215S467.734,359.848,473.223,358.075Z"/>
  <path class="cls-4" d="M382,358h37l-9.25,22.667L419,437.333,400.5,460,382,437.333l9.25-56.666Z"/>
  <ellipse cx="375" cy="252.5" rx="7" ry="14.5"/>
  <ellipse id="Ellipse_4_copy" data-name="Ellipse 4 copy" cx="423" cy="252.5" rx="7" ry="14.5"/>
  <path id="Cyber-Dev_" data-name="Cyber-Dev " class="cls-5" d="M264.77,679.95c11.2,0.1,19-7,18.6-30.9,0,0-6.8,0-14.7.3,0.5,16-1.2,19.2-3.7,19.2-3.4,0-4.5-5.7-4.5-25-0.2-18.5.9-25.2,4.4-25.2,2.9,0,3.7,4.4,3.6,17,0,0,5.6.3,14.5,0.4,0.4-16.9-3.9-28.8-17.4-28.8-14.5,0-20,12-20,36.7C245.569,669.849,251.169,679.95,264.77,679.95Zm43.1,20.2s2.6-13.5,15.4-72.5c0,0-8.3-.3-14.8-0.7,0,0-.8,11.8-4.1,37.3,0,0-2.3-13.5-4.7-34.7,0,0-5.5.6-14.5,0.6,0,0,4.6,17.4,12.5,52,0,0-.7,5.3-2.8,16.3C294.868,698.451,297.468,698.751,307.869,700.151Zm18.3-20.4c6.8-.1,10.6-0.1,10.6-0.1-0.1-2.8-.2-5.3-0.2-7.6,1.7,4.1,5.6,6.4,10.9,6.4,8.6,0,14.8-8.3,14.8-25,0-16.6-4.2-25.7-13.1-25.7-4.8,0-8.1,2.4-10.2,6.5,0.2-14.2.6-24.2,0.6-24.2-9.5,0-13.6-.1-13.6-0.1C326.267,658.149,326.167,679.75,326.167,679.75Zm17.6-9.5c-3.1,0-4.3-4.8-4.3-17.1,0-10.6,1.3-16.2,4.2-16.2,3,0,4.2,6.1,4.2,16.3C347.869,664.349,346.468,670.249,343.768,670.249Zm40,8.8c10.8,0,16.6-7.2,17.5-16.5-7.4-.4-13.4-1.1-13.4-1.1-0.2,6.1-1.5,8-4,8-2.9,0-4.3-2.8-4.7-10.9,13.2-.2,21.8-0.3,21.8-0.3,1-17.2-3-29.1-17.4-29.1-12.9,0-18.1,10.7-18.1,24.4C365.466,671.049,371.467,679.05,383.767,679.05Zm-0.3-41c2.5,0,3.9,2.2,3.8,12.5-2.8.1-5.4,0.2-8.1,0.2C379.367,641.848,380.567,638.047,383.467,638.047Zm22.1,40.4c9.8-.1,13.4-0.1,13.4-0.1s-0.4-13.5-.2-22.9c0.3-9,3.5-13.5,10.4-14.8,0.2-9.8.5-13.6,0.5-13.6-5.5.2-11.3,4.3-13.6,10.3,0-5.2.3-8.8,0.3-8.8-8.7.3-11,.1-11,0.1C405.666,652.848,405.566,678.45,405.566,678.45Zm26.5-27.1s8.5-.2,20.4,0c0,0-.1-1.6.2-11.1,0,0-6.8.1-20.7-.1C431.965,640.147,432.065,643.048,432.065,651.348Zm38.1,17.1s-0.5-24.7-.6-48.8c6.1-.9,8.7,5.8,8.7,24.5C478.266,666.449,475.266,668.849,470.165,668.449Zm-14,10.2a68.934,68.934,0,0,0,10.6.9c17.3,0,26.1-9,26.1-34.5,0-25.4-7.1-37.1-26.4-37.1a56.626,56.626,0,0,0-10.3,1S456.364,643.048,456.164,678.65Zm58.2,0.7c10,0,16.5-6.8,17.6-18.3-6.7-.2-13.5-0.3-13.5-0.3-0.2,6.1-1.5,9-4,9-3,0-4.4-3.7-4.7-12.6,13.2-.2,21.8-0.3,21.8-0.3,1-16.7-2.8-29.4-17.4-29.4-13.1,0-18.1,11.1-18.1,25.4C496.063,668.049,499.963,679.35,514.364,679.35Zm-0.3-43c2.8,0,3.9,4.7,3.8,12.8-2.8.1-5.4,0.2-8.1,0.2C510.064,640.747,511.264,636.347,514.064,636.347Zm46.7,41.1s2-13.9,8-50.2c0,0-4.9.1-13.2-.5,0,0-1,11.5-4.9,40.9,0,0-1.3-9.9-3.8-37.8,0,0-6,.3-13.7.3,0,0,2.7,15.5,7.8,47.6C540.965,677.75,548.365,677.85,560.766,677.45Z"/>
</svg>
